<?xml version="1.0" encoding="UTF-8"?>
<!DOCTYPE svg PUBLIC "-//W3C//DTD SVG 1.1//EN" "http://www.w3.org/Graphics/SVG/1.1/DTD/svg11.dtd">
<svg xmlns="http://www.w3.org/2000/svg" version="1.1" width="577px" height="433px" style="shape-rendering:geometricPrecision; text-rendering:geometricPrecision; image-rendering:optimizeQuality; fill-rule:evenodd; clip-rule:evenodd" xmlns:xlink="http://www.w3.org/1999/xlink">
<g><path style="opacity:0.004" fill="#fefffe" d="M 444.5,1.5 C 445.833,2.16667 445.833,2.16667 444.5,1.5 Z"/></g>
<g><path style="opacity:0.004" fill="#fefffe" d="M 401.5,4.5 C 402.833,5.16667 402.833,5.16667 401.5,4.5 Z"/></g>
<g><path style="opacity:0.004" fill="#fefffe" d="M 334.5,10.5 C 335.833,11.1667 335.833,11.1667 334.5,10.5 Z"/></g>
<g><path style="opacity:0.004" fill="#fefffe" d="M 166.5,11.5 C 167.833,12.1667 167.833,12.1667 166.5,11.5 Z"/></g>
<g><path style="opacity:0.004" fill="#fefffe" d="M 500.5,15.5 C 501.833,16.1667 501.833,16.1667 500.5,15.5 Z"/></g>
<g><path style="opacity:0.004" fill="#fefffe" d="M 92.5,22.5 C 93.8333,23.1667 93.8333,23.1667 92.5,22.5 Z"/></g>
<g><path style="opacity:0.004" fill="#fefffe" d="M 464.5,25.5 C 465.833,26.1667 465.833,26.1667 464.5,25.5 Z"/></g>
<g><path style="opacity:0.004" fill="#fefffe" d="M 423.5,31.5 C 424.833,32.1667 424.833,32.1667 423.5,31.5 Z"/></g>
<g><path style="opacity:0.004" fill="#fefffe" d="M 274.5,42.5 C 275.833,43.1667 275.833,43.1667 274.5,42.5 Z"/></g>
<g><path style="opacity:0.004" fill="#fefffe" d="M 7.5,44.5 C 8.83333,45.1667 8.83333,45.1667 7.5,44.5 Z"/></g>
<g><path style="opacity:0.004" fill="#fefffe" d="M 560.5,44.5 C 561.833,45.1667 561.833,45.1667 560.5,44.5 Z"/></g>
<g><path style="opacity:0.004" fill="#fefffe" d="M 163.5,50.5 C 164.833,51.1667 164.833,51.1667 163.5,50.5 Z"/></g>
<g><path style="opacity:0.004" fill="#fefffe" d="M 472.5,53.5 C 473.833,54.1667 473.833,54.1667 472.5,53.5 Z"/></g>
<g><path style="opacity:0.004" fill="#fefffe" d="M 198.5,57.5 C 199.833,58.1667 199.833,58.1667 198.5,57.5 Z"/></g>
<g><path style="opacity:0.004" fill="#fefffe" d="M 327.5,64.5 C 328.833,65.1667 328.833,65.1667 327.5,64.5 Z"/></g>
<g><path style="opacity:0.004" fill="#fefffe" d="M 231.5,73.5 C 232.833,74.1667 232.833,74.1667 231.5,73.5 Z"/></g>
<g><path style="opacity:0.004" fill="#fefffe" d="M 252.5,82.5 C 253.833,83.1667 253.833,83.1667 252.5,82.5 Z"/></g>
<g><path style="opacity:0.004" fill="#fefffe" d="M 549.5,85.5 C 550.833,86.1667 550.833,86.1667 549.5,85.5 Z"/></g>
<g><path style="opacity:0.004" fill="#fefffe" d="M 544.5,90.5 C 545.833,91.1667 545.833,91.1667 544.5,90.5 Z"/></g>
<g><path style="opacity:0.004" fill="#fefffe" d="M 19.5,96.5 C 20.8333,97.1667 20.8333,97.1667 19.5,96.5 Z"/></g>
<g><path style="opacity:0.004" fill="#fefffe" d="M 28.5,101.5 C 29.8333,102.167 29.8333,102.167 28.5,101.5 Z"/></g>
<g><path style="opacity:0.004" fill="#fefffe" d="M 430.5,102.5 C 431.833,103.167 431.833,103.167 430.5,102.5 Z"/></g>
<g><path style="opacity:0.004" fill="#fefffe" d="M 121.5,112.5 C 122.833,113.167 122.833,113.167 121.5,112.5 Z"/></g>
<g><path style="opacity:0.004" fill="#fefffe" d="M 465.5,120.5 C 466.833,121.167 466.833,121.167 465.5,120.5 Z"/></g>
<g><path style="opacity:0.004" fill="#fefffe" d="M 485.5,122.5 C 486.833,123.167 486.833,123.167 485.5,122.5 Z"/></g>
<g><path style="opacity:0.004" fill="#fefffe" d="M 327.5,124.5 C 328.833,125.167 328.833,125.167 327.5,124.5 Z"/></g>
<g><path style="opacity:0.149" fill="#df7a82" d="M 217.5,138.5 C 217.167,138.5 216.833,138.5 216.5,138.5C 212.917,138.27 209.917,136.937 207.5,134.5C 202.213,133.658 196.88,133.324 191.5,133.5C 185.773,133.26 180.106,133.593 174.5,134.5C 174.611,133.883 174.944,133.383 175.5,133C 186.167,132.333 196.833,132.333 207.5,133C 211.168,134.376 214.501,136.209 217.5,138.5 Z"/></g>
<g><path style="opacity:0.004" fill="#fefffe" d="M 374.5,136.5 C 375.833,137.167 375.833,137.167 374.5,136.5 Z"/></g>
<g><path style="opacity:1" fill="#fb5966" d="M 191.5,133.5 C 196.88,133.324 202.213,133.658 207.5,134.5C 205.811,135.304 204.145,136.304 202.5,137.5C 203.167,138.167 203.833,138.833 204.5,139.5C 203.313,140.519 202.313,141.686 201.5,143C 205.336,144.339 206.336,146.839 204.5,150.5C 199.897,151.383 195.23,151.717 190.5,151.5C 191.952,150.698 193.618,150.198 195.5,150C 193.431,149.676 193.098,148.842 194.5,147.5C 192.427,144.056 190.427,140.556 188.5,137C 190.063,136.241 191.063,135.074 191.5,133.5 Z"/></g>
<g><path style="opacity:1" fill="#f15a82" d="M 174.5,135.5 C 174.498,137.831 175.331,139.831 177,141.5C 178.27,139.164 179.77,139.164 181.5,141.5C 178.696,145.148 179.03,148.482 182.5,151.5C 182.167,151.5 181.833,151.5 181.5,151.5C 180.206,150.71 179.039,149.71 178,148.5C 176.294,144.921 174.461,141.421 172.5,138C 173.066,137.005 173.733,136.172 174.5,135.5 Z"/></g>
<g><path style="opacity:1" fill="#fc645c" d="M 207.5,134.5 C 209.917,136.937 212.917,138.27 216.5,138.5C 213.001,142.097 213.001,145.597 216.5,149C 215.692,150.706 214.359,151.539 212.5,151.5C 213.232,154.266 213.232,156.932 212.5,159.5C 210.603,155.929 207.936,152.929 204.5,150.5C 206.336,146.839 205.336,144.339 201.5,143C 202.313,141.686 203.313,140.519 204.5,139.5C 203.833,138.833 203.167,138.167 202.5,137.5C 204.145,136.304 205.811,135.304 207.5,134.5 Z"/></g>
<g><path style="opacity:1" fill="#fa7057" d="M 216.5,138.5 C 216.833,138.5 217.167,138.5 217.5,138.5C 221.876,140.577 224.876,143.911 226.5,148.5C 225.064,148.245 223.564,147.912 222,147.5C 218.114,155.519 218.947,162.852 224.5,169.5C 223.56,172.132 223.393,174.798 224,177.5C 224.498,179.544 225.665,180.878 227.5,181.5C 227.5,182.167 227.5,182.833 227.5,183.5C 228.291,187.077 229.624,190.41 231.5,193.5C 229.24,195.65 226.907,197.817 224.5,200C 227.089,201.657 229.756,201.991 232.5,201C 234.037,202.11 234.703,203.61 234.5,205.5C 237.896,205.633 238.229,206.633 235.5,208.5C 236.602,209.176 237.602,209.842 238.5,210.5C 236.304,210.59 234.137,210.923 232,211.5C 229.207,210.07 226.374,208.736 223.5,207.5C 224.491,206.335 225.491,205.168 226.5,204C 225.387,202.606 224.053,201.439 222.5,200.5C 223.326,199.549 223.492,198.549 223,197.5C 221.729,198.883 220.229,199.883 218.5,200.5C 221.12,196.654 224.787,194.154 229.5,193C 227.731,190.3 226.398,187.466 225.5,184.5C 224.209,180.903 222.209,177.903 219.5,175.5C 217.428,173.65 216.095,171.317 215.5,168.5C 215.086,165.257 214.086,162.257 212.5,159.5C 213.232,156.932 213.232,154.266 212.5,151.5C 214.359,151.539 215.692,150.706 216.5,149C 213.001,145.597 213.001,142.097 216.5,138.5 Z"/></g>
<g><path style="opacity:1" fill="#fb4c70" d="M 191.5,133.5 C 191.063,135.074 190.063,136.241 188.5,137C 190.427,140.556 192.427,144.056 194.5,147.5C 193.098,148.842 193.431,149.676 195.5,150C 193.618,150.198 191.952,150.698 190.5,151.5C 187.833,151.5 185.167,151.5 182.5,151.5C 179.03,148.482 178.696,145.148 181.5,141.5C 179.77,139.164 178.27,139.164 177,141.5C 175.331,139.831 174.498,137.831 174.5,135.5C 174.5,135.167 174.5,134.833 174.5,134.5C 180.106,133.593 185.773,133.26 191.5,133.5 Z"/></g>
<g><path style="opacity:0.004" fill="#fefffe" d="M 230.5,146.5 C 231.833,147.167 231.833,147.167 230.5,146.5 Z"/></g>
<g><path style="opacity:0.004" fill="#fefffe" d="M 455.5,148.5 C 456.833,149.167 456.833,149.167 455.5,148.5 Z"/></g>
<g><path style="opacity:0.004" fill="#fefffe" d="M 45.5,150.5 C 46.8333,151.167 46.8333,151.167 45.5,150.5 Z"/></g>
<g><path style="opacity:1" fill="#fb744f" d="M 226.5,148.5 C 228.729,151.184 230.395,154.184 231.5,157.5C 230.069,161.651 228.069,165.651 225.5,169.5C 226.267,173.235 227.434,173.235 229,169.5C 229.21,171.058 229.71,172.391 230.5,173.5C 229.38,175.481 228.38,178.148 227.5,181.5C 225.665,180.878 224.498,179.544 224,177.5C 223.393,174.798 223.56,172.132 224.5,169.5C 218.947,162.852 218.114,155.519 222,147.5C 223.564,147.912 225.064,148.245 226.5,148.5 Z"/></g>
<g><path style="opacity:1" fill="#fc9935" d="M 270.5,152.5 C 271.268,158.349 271.268,164.016 270.5,169.5C 264.974,169.821 259.64,169.488 254.5,168.5C 255.66,166.797 254.993,166.131 252.5,166.5C 252.5,165.5 252.5,164.5 252.5,163.5C 253.552,163.649 254.552,163.483 255.5,163C 253.006,160.577 253.006,158.244 255.5,156C 253.519,155.395 253.185,154.395 254.5,153C 259.823,152.501 265.156,152.334 270.5,152.5 Z"/></g>
<g><path style="opacity:1" fill="#fcab2b" d="M 272.5,151.5 C 277.5,151.5 282.5,151.5 287.5,151.5C 288.842,152.793 290.509,153.626 292.5,154C 291.5,155 290.5,156 289.5,157C 290.624,157.249 291.624,157.749 292.5,158.5C 291.242,160.648 291.242,162.815 292.5,165C 291.57,167.435 289.903,168.935 287.5,169.5C 281.833,169.5 276.167,169.5 270.5,169.5C 271.268,164.016 271.268,158.349 270.5,152.5C 271.492,152.672 272.158,152.338 272.5,151.5 Z"/></g>
<g><path style="opacity:1" fill="#fcbe1f" d="M 287.5,151.5 C 293.167,151.5 298.833,151.5 304.5,151.5C 307.241,152.083 309.908,153.083 312.5,154.5C 310.626,154.094 308.96,154.928 307.5,157C 310.346,157.879 311.013,159.546 309.5,162C 311.525,163.194 311.859,164.694 310.5,166.5C 311.376,167.251 312.376,167.751 313.5,168C 312.944,168.383 312.611,168.883 312.5,169.5C 305.833,169.5 299.167,169.5 292.5,169.5C 290.833,169.5 289.167,169.5 287.5,169.5C 289.903,168.935 291.57,167.435 292.5,165C 291.242,162.815 291.242,160.648 292.5,158.5C 291.624,157.749 290.624,157.249 289.5,157C 290.5,156 291.5,155 292.5,154C 290.509,153.626 288.842,152.793 287.5,151.5 Z"/></g>
<g><path style="opacity:1" fill="#fcce17" d="M 304.5,151.5 C 310.167,151.5 315.833,151.5 321.5,151.5C 324.82,152.393 327.82,153.727 330.5,155.5C 328.512,155.173 326.512,154.84 324.5,154.5C 322.519,154.437 320.852,155.104 319.5,156.5C 319.833,156.833 320.167,157.167 320.5,157.5C 322.656,155.062 324.989,154.895 327.5,157C 325.744,157.202 324.078,157.702 322.5,158.5C 324.88,160.603 324.213,161.77 320.5,162C 324.057,164.546 327.39,167.546 330.5,171C 329.549,171.718 329.383,172.551 330,173.5C 331.734,172.751 333.567,172.251 335.5,172C 335.167,171.667 334.833,171.333 334.5,171C 335.283,168.882 336.616,167.382 338.5,166.5C 339.165,168.369 339.831,170.369 340.5,172.5C 343.106,174.418 344.106,177.084 343.5,180.5C 341.864,181.749 340.697,183.416 340,185.5C 336.851,183.638 333.351,182.971 329.5,183.5C 329.627,180.755 328.46,178.755 326,177.5C 325.51,176.207 325.343,174.873 325.5,173.5C 324.5,173.5 323.5,173.5 322.5,173.5C 321.29,173.068 320.29,172.401 319.5,171.5C 317.721,169.656 315.388,168.99 312.5,169.5C 312.611,168.883 312.944,168.383 313.5,168C 312.376,167.751 311.376,167.251 310.5,166.5C 311.859,164.694 311.525,163.194 309.5,162C 311.013,159.546 310.346,157.879 307.5,157C 308.96,154.928 310.626,154.094 312.5,154.5C 309.908,153.083 307.241,152.083 304.5,151.5 Z"/></g>
<g><path style="opacity:0.914" fill="#edb06e" d="M 321.5,151.5 C 315.833,151.5 310.167,151.5 304.5,151.5C 298.833,151.5 293.167,151.5 287.5,151.5C 282.5,151.5 277.5,151.5 272.5,151.5C 264.493,151.334 256.493,151.5 248.5,152C 246.765,155.878 247.432,159.212 250.5,162C 251.096,164.225 251.763,166.392 252.5,168.5C 248.78,164.743 246.113,160.243 244.5,155C 245.743,153.846 246.743,152.512 247.5,151C 272.337,150.17 297.003,150.337 321.5,151.5 Z"/></g>
<g><path style="opacity:0.004" fill="#fefffe" d="M 445.5,156.5 C 446.833,157.167 446.833,157.167 445.5,156.5 Z"/></g>
<g><path style="opacity:1" fill="#f8913f" d="M 272.5,151.5 C 272.158,152.338 271.492,152.672 270.5,152.5C 265.156,152.334 259.823,152.501 254.5,153C 253.185,154.395 253.519,155.395 255.5,156C 253.006,158.244 253.006,160.577 255.5,163C 254.552,163.483 253.552,163.649 252.5,163.5C 252.5,164.5 252.5,165.5 252.5,166.5C 254.993,166.131 255.66,166.797 254.5,168.5C 253.833,168.5 253.167,168.5 252.5,168.5C 251.763,166.392 251.096,164.225 250.5,162C 247.432,159.212 246.765,155.878 248.5,152C 256.493,151.5 264.493,151.334 272.5,151.5 Z"/></g>
<g><path style="opacity:0.004" fill="#fefffe" d="M 524.5,162.5 C 525.833,163.167 525.833,163.167 524.5,162.5 Z"/></g>
<g><path style="opacity:0.812" fill="#e9857c" d="M 204.5,150.5 C 207.936,152.929 210.603,155.929 212.5,159.5C 214.086,162.257 215.086,165.257 215.5,168.5C 212.336,164.179 209.669,159.512 207.5,154.5C 205.897,154.688 204.563,154.188 203.5,153C 195.989,152.829 188.655,152.329 181.5,151.5C 181.833,151.5 182.167,151.5 182.5,151.5C 185.167,151.5 187.833,151.5 190.5,151.5C 195.23,151.717 199.897,151.383 204.5,150.5 Z"/></g>
<g><path style="opacity:0.004" fill="#fefffe" d="M 346.5,164.5 C 347.833,165.167 347.833,165.167 346.5,164.5 Z"/></g>
<g><path style="opacity:1" fill="#fbd80c" d="M 330.5,155.5 C 330.833,155.5 331.167,155.5 331.5,155.5C 333.573,159.308 335.906,162.974 338.5,166.5C 336.616,167.382 335.283,168.882 334.5,171C 334.833,171.333 335.167,171.667 335.5,172C 333.567,172.251 331.734,172.751 330,173.5C 329.383,172.551 329.549,171.718 330.5,171C 327.39,167.546 324.057,164.546 320.5,162C 324.213,161.77 324.88,160.603 322.5,158.5C 324.078,157.702 325.744,157.202 327.5,157C 324.989,154.895 322.656,155.062 320.5,157.5C 320.167,157.167 319.833,156.833 319.5,156.5C 320.852,155.104 322.519,154.437 324.5,154.5C 326.512,154.84 328.512,155.173 330.5,155.5 Z"/></g>
<g><path style="opacity:1" fill="#fb4e6c" d="M 194.5,166.5 C 192.951,169.629 190.951,172.462 188.5,175C 189.938,175.219 191.271,175.719 192.5,176.5C 191.652,178.409 191.318,180.409 191.5,182.5C 192.833,182.5 194.167,182.5 195.5,182.5C 195.5,182.833 195.5,183.167 195.5,183.5C 190.983,184.341 187.317,183.008 184.5,179.5C 185.933,177.191 185.266,175.691 182.5,175C 183.891,173.98 185.391,173.147 187,172.5C 187.617,171.551 187.451,170.718 186.5,170C 182.983,168.471 179.317,167.471 175.5,167C 181.825,166.5 188.158,166.334 194.5,166.5 Z"/></g>
<g><path style="opacity:0.42" fill="#e6a951" d="M 252.5,168.5 C 253.167,168.5 253.833,168.5 254.5,168.5C 259.64,169.488 264.974,169.821 270.5,169.5C 276.167,169.5 281.833,169.5 287.5,169.5C 289.167,169.5 290.833,169.5 292.5,169.5C 292.5,169.833 292.5,170.167 292.5,170.5C 280.253,170.178 268.086,170.512 256,171.5C 254.482,170.837 253.315,169.837 252.5,168.5 Z"/></g>
<g><path style="opacity:0.424" fill="#f3cd70" d="M 292.5,170.5 C 292.5,170.167 292.5,169.833 292.5,169.5C 299.167,169.5 305.833,169.5 312.5,169.5C 315.388,168.99 317.721,169.656 319.5,171.5C 310.9,170.79 301.9,170.456 292.5,170.5 Z"/></g>
<g><path style="opacity:1" fill="#f5d843" d="M 331.5,155.5 C 342.764,163.365 347.097,173.699 344.5,186.5C 343.85,184.565 343.517,182.565 343.5,180.5C 344.106,177.084 343.106,174.418 340.5,172.5C 339.831,170.369 339.165,168.369 338.5,166.5C 335.906,162.974 333.573,159.308 331.5,155.5 Z"/></g>
<g><path style="opacity:0.565" fill="#e57499" d="M 168.5,166.5 C 167.266,169.535 167.266,172.535 168.5,175.5C 166.595,174.536 165.595,172.869 165.5,170.5C 165.561,168.347 166.561,167.014 168.5,166.5 Z"/></g>
<g><path style="opacity:1" fill="#f84b77" d="M 199.5,166.5 C 197.833,166.5 196.167,166.5 194.5,166.5C 188.158,166.334 181.825,166.5 175.5,167C 179.317,167.471 182.983,168.471 186.5,170C 187.451,170.718 187.617,171.551 187,172.5C 185.391,173.147 183.891,173.98 182.5,175C 185.266,175.691 185.933,177.191 184.5,179.5C 187.317,183.008 190.983,184.341 195.5,183.5C 195.5,183.833 195.5,184.167 195.5,184.5C 187.826,184.666 180.159,184.5 172.5,184C 170.891,181.246 169.558,178.413 168.5,175.5C 167.266,172.535 167.266,169.535 168.5,166.5C 178.833,165.167 189.167,165.167 199.5,166.5 Z"/></g>
<g><path style="opacity:1" fill="#f77e4c" d="M 231.5,157.5 C 237.368,166.575 242.702,175.909 247.5,185.5C 245.857,183.027 243.69,181.027 241,179.5C 238.496,183.601 237.662,183.434 238.5,179C 236.635,176.088 234.635,175.922 232.5,178.5C 231.83,176.709 231.163,175.042 230.5,173.5C 229.71,172.391 229.21,171.058 229,169.5C 227.434,173.235 226.267,173.235 225.5,169.5C 228.069,165.651 230.069,161.651 231.5,157.5 Z"/></g>
<g><path style="opacity:0.004" fill="#fefffe" d="M 439.5,175.5 C 440.833,176.167 440.833,176.167 439.5,175.5 Z"/></g>
<g><path style="opacity:1" fill="#fc5866" d="M 194.5,166.5 C 196.167,166.5 197.833,166.5 199.5,166.5C 199.833,166.5 200.167,166.5 200.5,166.5C 200.963,169.482 201.296,172.482 201.5,175.5C 202.5,175.5 203.5,175.5 204.5,175.5C 204.5,177.833 204.5,180.167 204.5,182.5C 201.5,182.5 198.5,182.5 195.5,182.5C 194.167,182.5 192.833,182.5 191.5,182.5C 191.318,180.409 191.652,178.409 192.5,176.5C 191.271,175.719 189.938,175.219 188.5,175C 190.951,172.462 192.951,169.629 194.5,166.5 Z"/></g>
<g><path style="opacity:0.137" fill="#e69984" d="M 219.5,175.5 C 222.209,177.903 224.209,180.903 225.5,184.5C 224.624,184.631 223.957,184.298 223.5,183.5C 221.703,181.045 220.37,178.378 219.5,175.5 Z"/></g>
<g><path style="opacity:1" fill="#fb6e43" d="M 230.5,173.5 C 231.163,175.042 231.83,176.709 232.5,178.5C 234.635,175.922 236.635,176.088 238.5,179C 237.662,183.434 238.496,183.601 241,179.5C 243.69,181.027 245.857,183.027 247.5,185.5C 248.906,185.973 249.573,186.973 249.5,188.5C 249.357,190.262 249.691,191.929 250.5,193.5C 245.69,194.023 241.024,195.023 236.5,196.5C 235.349,202.183 237.683,205.516 243.5,206.5C 240.972,207.816 240.972,208.983 243.5,210C 250.103,211.274 256.77,211.774 263.5,211.5C 263.5,212.167 263.833,212.5 264.5,212.5C 265.312,214.945 266.312,217.278 267.5,219.5C 262.858,219.475 260.525,221.808 260.5,226.5C 258.987,227.846 257.653,229.346 256.5,231C 257.707,232.3 258.374,233.8 258.5,235.5C 255.916,234.952 254.916,233.285 255.5,230.5C 254.448,230.649 253.448,230.483 252.5,230C 251.717,227.882 250.384,226.382 248.5,225.5C 245.836,221.169 243.17,216.835 240.5,212.5C 240.5,211.167 239.833,210.5 238.5,210.5C 237.602,209.842 236.602,209.176 235.5,208.5C 238.229,206.633 237.896,205.633 234.5,205.5C 234.703,203.61 234.037,202.11 232.5,201C 229.756,201.991 227.089,201.657 224.5,200C 226.907,197.817 229.24,195.65 231.5,193.5C 237.167,193.5 242.833,193.5 248.5,193.5C 248.66,191.801 248.494,190.134 248,188.5C 247.667,188.833 247.333,189.167 247,189.5C 245.406,188.284 243.906,186.951 242.5,185.5C 241.614,186.325 241.281,187.325 241.5,188.5C 239.669,187.948 238.003,187.948 236.5,188.5C 236.369,185.609 234.702,184.942 231.5,186.5C 229.959,185.714 228.626,184.714 227.5,183.5C 227.5,182.833 227.5,182.167 227.5,181.5C 228.38,178.148 229.38,175.481 230.5,173.5 Z"/></g>
<g><path style="opacity:0.004" fill="#fefffe" d="M 143.5,181.5 C 144.833,182.167 144.833,182.167 143.5,181.5 Z"/></g>
<g><path style="opacity:1" fill="#e97278" d="M 200.5,166.5 C 202.794,169.991 204.961,173.658 207,177.5C 207.687,179.92 207.187,182.087 205.5,184C 202.183,184.498 198.85,184.665 195.5,184.5C 195.5,184.167 195.5,183.833 195.5,183.5C 195.5,183.167 195.5,182.833 195.5,182.5C 198.5,182.5 201.5,182.5 204.5,182.5C 204.5,180.167 204.5,177.833 204.5,175.5C 203.5,175.5 202.5,175.5 201.5,175.5C 201.296,172.482 200.963,169.482 200.5,166.5 Z"/></g>
<g><path style="opacity:0.004" fill="#fefffe" d="M 193.5,186.5 C 194.833,187.167 194.833,187.167 193.5,186.5 Z"/></g>
<g><path style="opacity:0.639" fill="#f2d373" d="M 325.5,183.5 C 325.736,186.226 324.903,188.559 323,190.5C 321.989,191.337 320.822,191.67 319.5,191.5C 321.997,189.156 323.997,186.489 325.5,183.5 Z"/></g>
<g><path style="opacity:1" fill="#fbc123" d="M 322.5,173.5 C 323.5,173.5 324.5,173.5 325.5,173.5C 325.343,174.873 325.51,176.207 326,177.5C 328.46,178.755 329.627,180.755 329.5,183.5C 333.351,182.971 336.851,183.638 340,185.5C 340.697,183.416 341.864,181.749 343.5,180.5C 343.517,182.565 343.85,184.565 344.5,186.5C 343.549,187.919 343.216,189.585 343.5,191.5C 342.07,191.421 340.736,191.754 339.5,192.5C 338.425,194.902 337.258,197.236 336,199.5C 335.417,197.998 334.584,196.665 333.5,195.5C 329.493,195.872 325.659,194.872 322,192.5C 320.862,192.989 319.695,193.322 318.5,193.5C 318.833,192.833 319.167,192.167 319.5,191.5C 320.822,191.67 321.989,191.337 323,190.5C 324.903,188.559 325.736,186.226 325.5,183.5C 325.5,179.846 324.5,176.513 322.5,173.5 Z"/></g>
<g><path style="opacity:1" fill="#fc5c3d" d="M 227.5,183.5 C 228.626,184.714 229.959,185.714 231.5,186.5C 234.702,184.942 236.369,185.609 236.5,188.5C 238.003,187.948 239.669,187.948 241.5,188.5C 241.281,187.325 241.614,186.325 242.5,185.5C 243.906,186.951 245.406,188.284 247,189.5C 247.333,189.167 247.667,188.833 248,188.5C 248.494,190.134 248.66,191.801 248.5,193.5C 242.833,193.5 237.167,193.5 231.5,193.5C 229.624,190.41 228.291,187.077 227.5,183.5 Z"/></g>
<g><path style="opacity:0.224" fill="#e9b873" d="M 319.5,191.5 C 319.167,192.167 318.833,192.833 318.5,193.5C 316.833,193.5 315.167,193.5 313.5,193.5C 307.167,193.5 300.833,193.5 294.5,193.5C 285.167,193.5 275.833,193.5 266.5,193.5C 261.968,193.818 257.634,193.485 253.5,192.5C 275.526,192.79 297.526,192.457 319.5,191.5 Z"/></g>
<g><path style="opacity:0.004" fill="#fefffe" d="M 177.5,194.5 C 178.833,195.167 178.833,195.167 177.5,194.5 Z"/></g>
<g><path style="opacity:1" fill="#fc8145" d="M 249.5,188.5 C 250.674,189.514 251.34,190.847 251.5,192.5C 252.483,193.85 253.816,194.85 255.5,195.5C 254.315,196.853 252.981,198.02 251.5,199C 253.754,199.624 255.421,200.957 256.5,203C 259.289,203.241 261.956,203.908 264.5,205C 262.048,205.29 259.715,205.956 257.5,207C 260.093,207.886 262.093,209.386 263.5,211.5C 256.77,211.774 250.103,211.274 243.5,210C 240.972,208.983 240.972,207.816 243.5,206.5C 237.683,205.516 235.349,202.183 236.5,196.5C 241.024,195.023 245.69,194.023 250.5,193.5C 249.691,191.929 249.357,190.262 249.5,188.5 Z"/></g>
<g><path style="opacity:1" fill="#fba42e" d="M 288.5,194.5 C 289.952,195.302 291.618,195.802 293.5,196C 292.5,196.333 291.5,196.667 290.5,197C 292.973,198.561 294.973,200.561 296.5,203C 302.638,203.564 303.305,204.897 298.5,207C 301.167,207.667 301.167,208.333 298.5,209C 305.437,210.288 312.437,210.788 319.5,210.5C 319.5,210.833 319.5,211.167 319.5,211.5C 308.833,211.5 298.167,211.5 287.5,211.5C 287.5,211.167 287.5,210.833 287.5,210.5C 290.271,210.579 292.937,210.079 295.5,209C 294.207,208.51 292.873,208.343 291.5,208.5C 291.36,206.876 292.027,205.71 293.5,205C 288.634,202.689 283.634,200.522 278.5,198.5C 278.709,197.914 279.043,197.414 279.5,197C 278.529,195.796 277.529,195.296 276.5,195.5C 280.445,194.509 284.445,194.176 288.5,194.5 Z"/></g>
<g><path style="opacity:0.278" fill="#ebb365" d="M 345.5,193.5 C 349.816,194.377 353.482,196.377 356.5,199.5C 354.216,199.025 352.216,198.025 350.5,196.5C 348.566,195.89 346.899,194.89 345.5,193.5 Z"/></g>
<g><path style="opacity:1" fill="#fcb325" d="M 344.5,186.5 C 344.702,188.95 344.369,191.283 343.5,193.5C 342.504,193.414 341.671,193.748 341,194.5C 338.615,201.052 334.115,205.385 327.5,207.5C 321.843,208.476 316.176,208.309 310.5,207C 311.833,206.333 313.167,205.667 314.5,205C 310.857,204.607 307.19,203.94 303.5,203C 303.167,202.667 302.833,202.333 302.5,202C 306.669,202.208 307.836,200.708 306,197.5C 303.734,196.044 301.234,195.21 298.5,195C 303.684,194.826 308.684,194.326 313.5,193.5C 315.167,193.5 316.833,193.5 318.5,193.5C 319.695,193.322 320.862,192.989 322,192.5C 325.659,194.872 329.493,195.872 333.5,195.5C 334.584,196.665 335.417,197.998 336,199.5C 337.258,197.236 338.425,194.902 339.5,192.5C 340.736,191.754 342.07,191.421 343.5,191.5C 343.216,189.585 343.549,187.919 344.5,186.5 Z"/></g>
<g><path style="opacity:0.004" fill="#fefffe" d="M 195.5,201.5 C 196.833,202.167 196.833,202.167 195.5,201.5 Z"/></g>
<g><path style="opacity:1" fill="#fc913b" d="M 251.5,192.5 C 252.167,192.5 252.833,192.5 253.5,192.5C 257.634,193.485 261.968,193.818 266.5,193.5C 266.196,194.15 265.863,194.817 265.5,195.5C 267.078,196.298 268.744,196.798 270.5,197C 268.162,198.162 266.828,199.996 266.5,202.5C 269.4,202.28 272.067,202.946 274.5,204.5C 271.337,205.324 269.67,207.324 269.5,210.5C 275.5,210.5 281.5,210.5 287.5,210.5C 287.5,210.833 287.5,211.167 287.5,211.5C 279.747,211.201 272.08,211.534 264.5,212.5C 263.833,212.5 263.5,212.167 263.5,211.5C 262.093,209.386 260.093,207.886 257.5,207C 259.715,205.956 262.048,205.29 264.5,205C 261.956,203.908 259.289,203.241 256.5,203C 255.421,200.957 253.754,199.624 251.5,199C 252.981,198.02 254.315,196.853 255.5,195.5C 253.816,194.85 252.483,193.85 251.5,192.5 Z"/></g>
<g><path style="opacity:1" fill="#fc9d33" d="M 266.5,193.5 C 275.833,193.5 285.167,193.5 294.5,193.5C 292.735,194.461 290.735,194.795 288.5,194.5C 284.445,194.176 280.445,194.509 276.5,195.5C 277.529,195.296 278.529,195.796 279.5,197C 279.043,197.414 278.709,197.914 278.5,198.5C 283.634,200.522 288.634,202.689 293.5,205C 292.027,205.71 291.36,206.876 291.5,208.5C 292.873,208.343 294.207,208.51 295.5,209C 292.937,210.079 290.271,210.579 287.5,210.5C 281.5,210.5 275.5,210.5 269.5,210.5C 269.67,207.324 271.337,205.324 274.5,204.5C 272.067,202.946 269.4,202.28 266.5,202.5C 266.828,199.996 268.162,198.162 270.5,197C 268.744,196.798 267.078,196.298 265.5,195.5C 265.863,194.817 266.196,194.15 266.5,193.5 Z"/></g>
<g><path style="opacity:1" fill="#fdab29" d="M 294.5,193.5 C 300.833,193.5 307.167,193.5 313.5,193.5C 308.684,194.326 303.684,194.826 298.5,195C 301.234,195.21 303.734,196.044 306,197.5C 307.836,200.708 306.669,202.208 302.5,202C 302.833,202.333 303.167,202.667 303.5,203C 307.19,203.94 310.857,204.607 314.5,205C 313.167,205.667 311.833,206.333 310.5,207C 316.176,208.309 321.843,208.476 327.5,207.5C 325.11,209.02 322.443,210.02 319.5,210.5C 312.437,210.788 305.437,210.288 298.5,209C 301.167,208.333 301.167,207.667 298.5,207C 303.305,204.897 302.638,203.564 296.5,203C 294.973,200.561 292.973,198.561 290.5,197C 291.5,196.667 292.5,196.333 293.5,196C 291.618,195.802 289.952,195.302 288.5,194.5C 290.735,194.795 292.735,194.461 294.5,193.5 Z"/></g>
<g><path style="opacity:0.004" fill="#fefffe" d="M 423.5,203.5 C 424.833,204.167 424.833,204.167 423.5,203.5 Z"/></g>
<g><path style="opacity:0.004" fill="#fefffe" d="M 454.5,203.5 C 455.833,204.167 455.833,204.167 454.5,203.5 Z"/></g>
<g><path style="opacity:1" fill="#f2ac4c" d="M 356.5,199.5 C 362.978,204.112 366.644,210.445 367.5,218.5C 367.167,218.5 366.833,218.5 366.5,218.5C 366.5,218.167 366.5,217.833 366.5,217.5C 365.142,214.126 363.809,210.793 362.5,207.5C 358.14,206.835 356.14,204.168 356.5,199.5 Z"/></g>
<g><path style="opacity:1" fill="#fb675d" d="M 238.5,210.5 C 239.833,210.5 240.5,211.167 240.5,212.5C 234.441,210.709 231.441,213.043 231.5,219.5C 230.835,217.631 230.169,215.631 229.5,213.5C 224.712,215.549 220.712,218.549 217.5,222.5C 216.922,220.557 215.922,220.223 214.5,221.5C 213.526,219.257 213.192,216.924 213.5,214.5C 214.228,211.921 214.728,209.254 215,206.5C 215.5,204.667 216.667,203.5 218.5,203C 217.402,202.23 217.402,201.397 218.5,200.5C 220.229,199.883 221.729,198.883 223,197.5C 223.492,198.549 223.326,199.549 222.5,200.5C 224.053,201.439 225.387,202.606 226.5,204C 225.491,205.168 224.491,206.335 223.5,207.5C 226.374,208.736 229.207,210.07 232,211.5C 234.137,210.923 236.304,210.59 238.5,210.5 Z"/></g>
<g><path style="opacity:1" fill="#fa8a1f" d="M 343.5,193.5 C 344.167,193.5 344.833,193.5 345.5,193.5C 346.899,194.89 348.566,195.89 350.5,196.5C 351.038,198.117 351.371,199.784 351.5,201.5C 348.722,201.022 346.722,202.022 345.5,204.5C 346.729,205.281 348.062,205.781 349.5,206C 347.321,206.442 346.655,207.442 347.5,209C 346.5,209.333 345.5,209.667 344.5,210C 345.956,210.423 346.456,211.256 346,212.5C 344.644,211.62 343.144,211.286 341.5,211.5C 340.167,211.5 338.833,211.5 337.5,211.5C 331.5,211.5 325.5,211.5 319.5,211.5C 319.5,211.167 319.5,210.833 319.5,210.5C 322.443,210.02 325.11,209.02 327.5,207.5C 334.115,205.385 338.615,201.052 341,194.5C 341.671,193.748 342.504,193.414 343.5,193.5 Z"/></g>
<g><path style="opacity:0.004" fill="#fefffe" d="M 107.5,210.5 C 108.833,211.167 108.833,211.167 107.5,210.5 Z"/></g>
<g><path style="opacity:0.004" fill="#fefffe" d="M 31.5,212.5 C 32.8333,213.167 32.8333,213.167 31.5,212.5 Z"/></g>
<g><path style="opacity:1" fill="#fc9f2b" d="M 350.5,196.5 C 352.216,198.025 354.216,199.025 356.5,199.5C 356.14,204.168 358.14,206.835 362.5,207.5C 363.809,210.793 365.142,214.126 366.5,217.5C 364.976,218.174 363.642,219.174 362.5,220.5C 361.167,219.833 359.833,219.167 358.5,218.5C 357.5,221.167 356.5,221.167 355.5,218.5C 356.738,215.834 356.738,213.168 355.5,210.5C 354.205,212.328 353.205,214.328 352.5,216.5C 348.158,216.119 344.491,214.453 341.5,211.5C 343.144,211.286 344.644,211.62 346,212.5C 346.456,211.256 345.956,210.423 344.5,210C 345.5,209.667 346.5,209.333 347.5,209C 346.655,207.442 347.321,206.442 349.5,206C 348.062,205.781 346.729,205.281 345.5,204.5C 346.722,202.022 348.722,201.022 351.5,201.5C 351.371,199.784 351.038,198.117 350.5,196.5 Z"/></g>
<g><path style="opacity:0.004" fill="#fefffe" d="M 200.5,218.5 C 201.833,219.167 201.833,219.167 200.5,218.5 Z"/></g>
<g><path style="opacity:1" fill="#f45c68" d="M 213.5,214.5 C 213.192,216.924 213.526,219.257 214.5,221.5C 215.922,220.223 216.922,220.557 217.5,222.5C 217.323,226.234 217.656,229.901 218.5,233.5C 220.403,235.74 221.403,238.406 221.5,241.5C 218.053,236.941 215.387,231.941 213.5,226.5C 212.461,222.342 212.461,218.342 213.5,214.5 Z"/></g>
<g><path style="opacity:0.004" fill="#fefffe" d="M 427.5,221.5 C 428.833,222.167 428.833,222.167 427.5,221.5 Z"/></g>
<g><path style="opacity:1" fill="#fb9c36" d="M 366.5,217.5 C 366.5,217.833 366.5,218.167 366.5,218.5C 367.42,223.823 365.92,228.157 362,231.5C 361.086,230.346 360.253,230.513 359.5,232C 359.833,232.333 360.167,232.667 360.5,233C 359.034,233.635 357.7,234.469 356.5,235.5C 355.833,234.833 355.167,234.167 354.5,233.5C 352.193,234.991 349.693,235.991 347,236.5C 345.961,235.756 345.461,234.756 345.5,233.5C 345.833,232.167 346.167,230.833 346.5,229.5C 347.008,227.135 347.675,224.801 348.5,222.5C 347.391,220.615 346.557,218.615 346,216.5C 343.254,214.545 340.42,212.878 337.5,211.5C 338.833,211.5 340.167,211.5 341.5,211.5C 344.491,214.453 348.158,216.119 352.5,216.5C 353.205,214.328 354.205,212.328 355.5,210.5C 356.738,213.168 356.738,215.834 355.5,218.5C 356.5,221.167 357.5,221.167 358.5,218.5C 359.833,219.167 361.167,219.833 362.5,220.5C 363.642,219.174 364.976,218.174 366.5,217.5 Z"/></g>
<g><path style="opacity:0.639" fill="#e87678" d="M 218.5,200.5 C 217.402,201.397 217.402,202.23 218.5,203C 216.667,203.5 215.5,204.667 215,206.5C 214.728,209.254 214.228,211.921 213.5,214.5C 212.461,218.342 212.461,222.342 213.5,226.5C 212.883,226.389 212.383,226.056 212,225.5C 210.603,217.733 211.603,210.4 215,203.5C 215.759,201.937 216.926,200.937 218.5,200.5 Z"/></g>
<g><path style="opacity:0.004" fill="#fefffe" d="M 460.5,224.5 C 461.833,225.167 461.833,225.167 460.5,224.5 Z"/></g>
<g><path style="opacity:1" fill="#fa3041" d="M 231.5,219.5 C 231.5,219.833 231.5,220.167 231.5,220.5C 231.756,223.457 232.756,226.124 234.5,228.5C 234.123,230.824 233.123,231.491 231.5,230.5C 228.823,235.707 226.489,235.373 224.5,229.5C 222.998,230.083 221.665,230.916 220.5,232C 220.833,232.333 221.167,232.667 221.5,233C 220.552,233.483 219.552,233.649 218.5,233.5C 217.656,229.901 217.323,226.234 217.5,222.5C 220.712,218.549 224.712,215.549 229.5,213.5C 230.169,215.631 230.835,217.631 231.5,219.5 Z"/></g>
<g><path style="opacity:0.004" fill="#fefffe" d="M 245.5,231.5 C 246.833,232.167 246.833,232.167 245.5,231.5 Z"/></g>
<g><path style="opacity:1" fill="#f08264" d="M 248.5,225.5 C 250.384,226.382 251.717,227.882 252.5,230C 253.448,230.483 254.448,230.649 255.5,230.5C 254.916,233.285 255.916,234.952 258.5,235.5C 258.833,235.5 259.167,235.5 259.5,235.5C 259.483,237.565 259.15,239.565 258.5,241.5C 254.68,236.539 251.347,231.206 248.5,225.5 Z"/></g>
<g><path style="opacity:0.004" fill="#fefffe" d="M 513.5,231.5 C 514.833,232.167 514.833,232.167 513.5,231.5 Z"/></g>
<g><path style="opacity:0.004" fill="#fefffe" d="M 551.5,231.5 C 552.833,232.167 552.833,232.167 551.5,231.5 Z"/></g>
<g><path style="opacity:0.524" fill="#eda268" d="M 346.5,229.5 C 346.167,230.833 345.833,232.167 345.5,233.5C 344.234,234.09 342.901,234.59 341.5,235C 328.504,235.5 315.504,235.667 302.5,235.5C 294.167,235.5 285.833,235.5 277.5,235.5C 277.5,234.833 277.167,234.5 276.5,234.5C 275.449,233.778 274.782,232.778 274.5,231.5C 279.156,233.933 284.156,234.933 289.5,234.5C 306.599,233.863 323.433,233.863 340,234.5C 342.429,233.106 344.596,231.44 346.5,229.5 Z"/></g>
<g><path style="opacity:1" fill="#fb9540" d="M 366.5,218.5 C 366.833,218.5 367.167,218.5 367.5,218.5C 368.969,226.32 367.636,233.32 363.5,239.5C 363.543,235.107 363.043,234.774 362,238.5C 360.667,237.833 359.667,236.833 359,235.5C 356.384,237.386 354.217,239.719 352.5,242.5C 347.276,242.402 342.11,242.402 337,242.5C 331.249,241.69 325.416,241.19 319.5,241C 319,240.5 318.5,240 318,239.5C 317,239.833 316,240.167 315,240.5C 314.612,239.572 313.945,238.905 313,238.5C 309.224,239.841 305.724,238.841 302.5,235.5C 315.504,235.667 328.504,235.5 341.5,235C 342.901,234.59 344.234,234.09 345.5,233.5C 345.461,234.756 345.961,235.756 347,236.5C 349.693,235.991 352.193,234.991 354.5,233.5C 355.167,234.167 355.833,234.833 356.5,235.5C 357.7,234.469 359.034,233.635 360.5,233C 360.167,232.667 359.833,232.333 359.5,232C 360.253,230.513 361.086,230.346 362,231.5C 365.92,228.157 367.42,223.823 366.5,218.5 Z"/></g>
<g><path style="opacity:0.004" fill="#fefffe" d="M 164.5,235.5 C 165.833,236.167 165.833,236.167 164.5,235.5 Z"/></g>
<g><path style="opacity:1" fill="#fc8c3e" d="M 277.5,235.5 C 285.833,235.5 294.167,235.5 302.5,235.5C 305.724,238.841 309.224,239.841 313,238.5C 313.945,238.905 314.612,239.572 315,240.5C 316,240.167 317,239.833 318,239.5C 318.5,240 319,240.5 319.5,241C 325.416,241.19 331.249,241.69 337,242.5C 342.11,242.402 347.276,242.402 352.5,242.5C 354.217,239.719 356.384,237.386 359,235.5C 359.667,236.833 360.667,237.833 362,238.5C 363.043,234.774 363.543,235.107 363.5,239.5C 362.06,240.363 360.726,240.363 359.5,239.5C 359.284,244.719 356.618,247.053 351.5,246.5C 351.5,247.833 351.5,249.167 351.5,250.5C 349.435,250.517 347.435,250.85 345.5,251.5C 345.611,250.883 345.944,250.383 346.5,250C 341.874,249.583 337.708,248.416 334,246.5C 329.667,246.833 325.333,247.167 321,247.5C 315.792,245.741 310.292,244.907 304.5,245C 303.833,244.667 303.167,244.333 302.5,244C 307.549,241.948 307.382,241.115 302,241.5C 299.76,240.964 297.927,239.797 296.5,238C 293.025,238.107 289.691,238.274 286.5,238.5C 283.566,237.023 280.566,236.023 277.5,235.5 Z"/></g>
<g><path style="opacity:0.004" fill="#fefffe" d="M 27.5,237.5 C 28.8333,238.167 28.8333,238.167 27.5,237.5 Z"/></g>
<g><path style="opacity:1" fill="#fc7f47" d="M 267.5,219.5 C 270.572,223.024 272.905,227.024 274.5,231.5C 274.782,232.778 275.449,233.778 276.5,234.5C 277.128,239.597 279.461,240.597 283.5,237.5C 284.287,238.242 284.953,239.075 285.5,240C 284.643,240.689 283.977,241.522 283.5,242.5C 290.4,244.56 297.067,247.226 303.5,250.5C 303.863,251.183 304.196,251.85 304.5,252.5C 298.5,252.5 292.5,252.5 286.5,252.5C 284.708,251.691 282.708,251.191 280.5,251C 280.042,248.602 278.708,246.936 276.5,246C 276.957,245.586 277.291,245.086 277.5,244.5C 274.5,243.833 271.5,243.167 268.5,242.5C 265.792,239.791 262.792,237.458 259.5,235.5C 259.167,235.5 258.833,235.5 258.5,235.5C 258.374,233.8 257.707,232.3 256.5,231C 257.653,229.346 258.987,227.846 260.5,226.5C 260.525,221.808 262.858,219.475 267.5,219.5 Z"/></g>
<g><path style="opacity:1" fill="#fd8740" d="M 276.5,234.5 C 277.167,234.5 277.5,234.833 277.5,235.5C 280.566,236.023 283.566,237.023 286.5,238.5C 289.691,238.274 293.025,238.107 296.5,238C 297.927,239.797 299.76,240.964 302,241.5C 307.382,241.115 307.549,241.948 302.5,244C 303.167,244.333 303.833,244.667 304.5,245C 310.292,244.907 315.792,245.741 321,247.5C 325.333,247.167 329.667,246.833 334,246.5C 337.708,248.416 341.874,249.583 346.5,250C 345.944,250.383 345.611,250.883 345.5,251.5C 331.882,252.465 318.216,252.798 304.5,252.5C 304.196,251.85 303.863,251.183 303.5,250.5C 297.067,247.226 290.4,244.56 283.5,242.5C 283.977,241.522 284.643,240.689 285.5,240C 284.953,239.075 284.287,238.242 283.5,237.5C 279.461,240.597 277.128,239.597 276.5,234.5 Z"/></g>
<g><path style="opacity:1" fill="#fb4551" d="M 231.5,220.5 C 233.588,222.336 234.921,224.669 235.5,227.5C 237.182,233.377 239.515,238.877 242.5,244C 241.747,245.487 240.914,245.654 240,244.5C 239.53,245.577 239.697,246.577 240.5,247.5C 239.504,247.414 238.671,247.748 238,248.5C 237.417,246.998 236.584,245.665 235.5,244.5C 234.614,245.325 234.281,246.325 234.5,247.5C 231.722,247.978 229.722,246.978 228.5,244.5C 226.004,243.749 223.67,242.749 221.5,241.5C 221.403,238.406 220.403,235.74 218.5,233.5C 219.552,233.649 220.552,233.483 221.5,233C 221.167,232.667 220.833,232.333 220.5,232C 221.665,230.916 222.998,230.083 224.5,229.5C 226.489,235.373 228.823,235.707 231.5,230.5C 233.123,231.491 234.123,230.824 234.5,228.5C 232.756,226.124 231.756,223.457 231.5,220.5 Z"/></g>
<g><path style="opacity:0.004" fill="#fefffe" d="M 424.5,238.5 C 425.833,239.167 425.833,239.167 424.5,238.5 Z"/></g>
<g><path style="opacity:1" fill="#fa774f" d="M 259.5,235.5 C 262.792,237.458 265.792,239.791 268.5,242.5C 271.5,243.167 274.5,243.833 277.5,244.5C 277.291,245.086 276.957,245.586 276.5,246C 278.708,246.936 280.042,248.602 280.5,251C 282.708,251.191 284.708,251.691 286.5,252.5C 281.13,252.608 275.797,252.275 270.5,251.5C 264.964,249.96 260.964,246.627 258.5,241.5C 259.15,239.565 259.483,237.565 259.5,235.5 Z"/></g>
<g><path style="opacity:0.994" fill="#f3a46e" d="M 363.5,239.5 C 360.783,244.549 356.783,248.216 351.5,250.5C 351.5,249.167 351.5,247.833 351.5,246.5C 356.618,247.053 359.284,244.719 359.5,239.5C 360.726,240.363 362.06,240.363 363.5,239.5 Z"/></g>
<g><path style="opacity:0.082" fill="#f3b8b0" d="M 247.5,247.5 C 248.906,247.973 249.573,248.973 249.5,250.5C 248.094,250.027 247.427,249.027 247.5,247.5 Z"/></g>
<g><path style="opacity:0.612" fill="#eda17e" d="M 351.5,250.5 C 348.718,251.933 345.718,253.1 342.5,254C 320.5,254.667 298.5,254.667 276.5,254C 274.148,253.76 272.148,252.927 270.5,251.5C 275.797,252.275 281.13,252.608 286.5,252.5C 292.5,252.5 298.5,252.5 304.5,252.5C 318.216,252.798 331.882,252.465 345.5,251.5C 347.435,250.85 349.435,250.517 351.5,250.5 Z"/></g>
<g><path style="opacity:0.973" fill="#e98a85" d="M 249.5,250.5 C 251.932,253.688 254.599,256.688 257.5,259.5C 253.201,257.873 250.535,254.873 249.5,250.5 Z"/></g>
<g><path style="opacity:0.004" fill="#fefffe" d="M 519.5,258.5 C 520.833,259.167 520.833,259.167 519.5,258.5 Z"/></g>
<g><path style="opacity:1" fill="#f06372" d="M 227.5,251.5 C 228.5,251.5 229.5,251.5 230.5,251.5C 230.238,252.978 230.571,254.311 231.5,255.5C 233.197,256.364 234.363,257.697 235,259.5C 235.423,258.044 236.256,257.544 237.5,258C 237.167,258.333 236.833,258.667 236.5,259C 238.656,260.603 239.99,262.77 240.5,265.5C 241.325,266.386 242.325,266.719 243.5,266.5C 243.343,267.873 243.51,269.207 244,270.5C 245.011,269.663 246.178,269.33 247.5,269.5C 247.393,271.903 248.393,273.736 250.5,275C 254.29,276.81 258.29,277.977 262.5,278.5C 264.415,282.008 267.415,283.341 271.5,282.5C 271.5,282.833 271.5,283.167 271.5,283.5C 271.5,283.833 271.5,284.167 271.5,284.5C 251.125,281.127 236.459,270.127 227.5,251.5 Z"/></g>
<g><path style="opacity:0.004" fill="#fefffe" d="M 531.5,263.5 C 532.833,264.167 532.833,264.167 531.5,263.5 Z"/></g>
<g><path style="opacity:0.11" fill="#e48a70" d="M 262.5,262.5 C 264.924,263.03 267.257,263.864 269.5,265C 306.002,265.167 342.336,265.667 378.5,266.5C 375.833,266.5 373.167,266.5 370.5,266.5C 345.5,266.5 320.5,266.5 295.5,266.5C 287.5,266.5 279.5,266.5 271.5,266.5C 267.64,266.674 264.64,265.341 262.5,262.5 Z"/></g>
<g><path style="opacity:1" fill="#fd685a" d="M 271.5,267.5 C 277.043,268.856 282.71,269.69 288.5,270C 292.898,272.271 297.564,273.938 302.5,275C 308.696,274.83 315.029,275.163 321.5,276C 318.971,277.062 316.304,277.895 313.5,278.5C 315.766,279.314 318.1,279.814 320.5,280C 330.152,280.392 339.652,280.558 349,280.5C 353.014,280.397 353.847,279.064 351.5,276.5C 356.792,275.505 362.125,275.172 367.5,275.5C 367.351,274.448 367.517,273.448 368,272.5C 371.164,275.112 374.331,275.112 377.5,272.5C 377.229,274.821 377.896,276.821 379.5,278.5C 379.291,279.086 378.957,279.586 378.5,280C 375.438,280.741 372.438,280.575 369.5,279.5C 366.851,280.972 364.018,281.972 361,282.5C 351.378,282.039 341.378,282.039 331,282.5C 323.098,282.482 315.432,281.816 308,280.5C 307.333,283.167 306.667,283.167 306,280.5C 305.586,280.957 305.086,281.291 304.5,281.5C 302.883,280.358 301.05,279.691 299,279.5C 294.572,279.156 290.238,278.489 286,277.5C 284.636,278.258 283.469,277.758 282.5,276C 284.384,275.784 286.051,275.117 287.5,274C 283.558,274.029 279.558,273.362 275.5,272C 276.167,271.667 276.833,271.333 277.5,271C 274.471,270.461 271.471,269.794 268.5,269C 269.244,267.961 270.244,267.461 271.5,267.5 Z"/></g>
<g><path style="opacity:1" fill="#fc6d55" d="M 271.5,267.5 C 271.5,267.167 271.5,266.833 271.5,266.5C 279.5,266.5 287.5,266.5 295.5,266.5C 294.737,267.268 293.737,267.768 292.5,268C 296.252,268.462 299.752,269.628 303,271.5C 304.333,270.833 305.333,269.833 306,268.5C 308.643,270.56 311.476,271.226 314.5,270.5C 315.795,271.098 317.128,271.598 318.5,272C 319.833,272.667 319.833,273.333 318.5,274C 330.817,275.791 343.15,275.791 355.5,274C 354.062,273.781 352.729,273.281 351.5,272.5C 354.785,271.676 358.118,271.176 361.5,271C 360.833,270.667 360.167,270.333 359.5,270C 363.206,270.524 366.873,270.358 370.5,269.5C 370.5,268.5 370.5,267.5 370.5,266.5C 373.167,266.5 375.833,266.5 378.5,266.5C 378.5,267.833 378.5,269.167 378.5,270.5C 378.167,271.167 377.833,271.833 377.5,272.5C 374.331,275.112 371.164,275.112 368,272.5C 367.517,273.448 367.351,274.448 367.5,275.5C 362.125,275.172 356.792,275.505 351.5,276.5C 353.847,279.064 353.014,280.397 349,280.5C 339.652,280.558 330.152,280.392 320.5,280C 318.1,279.814 315.766,279.314 313.5,278.5C 316.304,277.895 318.971,277.062 321.5,276C 315.029,275.163 308.696,274.83 302.5,275C 297.564,273.938 292.898,272.271 288.5,270C 282.71,269.69 277.043,268.856 271.5,267.5 Z"/></g>
<g><path style="opacity:1" fill="#fc7451" d="M 295.5,266.5 C 320.5,266.5 345.5,266.5 370.5,266.5C 370.5,267.5 370.5,268.5 370.5,269.5C 366.873,270.358 363.206,270.524 359.5,270C 360.167,270.333 360.833,270.667 361.5,271C 358.118,271.176 354.785,271.676 351.5,272.5C 352.729,273.281 354.062,273.781 355.5,274C 343.15,275.791 330.817,275.791 318.5,274C 319.833,273.333 319.833,272.667 318.5,272C 317.128,271.598 315.795,271.098 314.5,270.5C 311.476,271.226 308.643,270.56 306,268.5C 305.333,269.833 304.333,270.833 303,271.5C 299.752,269.628 296.252,268.462 292.5,268C 293.737,267.768 294.737,267.268 295.5,266.5 Z"/></g>
<g><path style="opacity:1" fill="#fc5763" d="M 221.5,241.5 C 223.67,242.749 226.004,243.749 228.5,244.5C 229.722,246.978 231.722,247.978 234.5,247.5C 234.281,246.325 234.614,245.325 235.5,244.5C 236.584,245.665 237.417,246.998 238,248.5C 238.671,247.748 239.504,247.414 240.5,247.5C 239.086,249.598 239.752,250.598 242.5,250.5C 242.579,251.93 242.246,253.264 241.5,254.5C 244.555,255.305 246.222,257.305 246.5,260.5C 249.799,263.058 252.966,265.725 256,268.5C 258.044,267.228 259.878,267.561 261.5,269.5C 262.5,270.5 263.5,271.5 264.5,272.5C 264.291,273.086 263.957,273.586 263.5,274C 265.891,275.035 268.224,275.202 270.5,274.5C 272.585,275.541 274.252,277.041 275.5,279C 279.219,279.388 282.886,280.055 286.5,281C 281.58,282.25 276.58,282.75 271.5,282.5C 267.415,283.341 264.415,282.008 262.5,278.5C 258.29,277.977 254.29,276.81 250.5,275C 248.393,273.736 247.393,271.903 247.5,269.5C 246.178,269.33 245.011,269.663 244,270.5C 243.51,269.207 243.343,267.873 243.5,266.5C 242.325,266.719 241.325,266.386 240.5,265.5C 239.99,262.77 238.656,260.603 236.5,259C 236.833,258.667 237.167,258.333 237.5,258C 236.256,257.544 235.423,258.044 235,259.5C 234.363,257.697 233.197,256.364 231.5,255.5C 230.571,254.311 230.238,252.978 230.5,251.5C 229.5,251.5 228.5,251.5 227.5,251.5C 225.137,248.451 223.137,245.118 221.5,241.5 Z"/></g>
<g><path style="opacity:1" fill="#fb625f" d="M 235.5,227.5 C 236.458,227.953 237.292,228.619 238,229.5C 241.426,235.409 244.592,241.409 247.5,247.5C 247.427,249.027 248.094,250.027 249.5,250.5C 250.535,254.873 253.201,257.873 257.5,259.5C 259.434,260.11 261.101,261.11 262.5,262.5C 264.64,265.341 267.64,266.674 271.5,266.5C 271.5,266.833 271.5,267.167 271.5,267.5C 270.244,267.461 269.244,267.961 268.5,269C 271.471,269.794 274.471,270.461 277.5,271C 276.833,271.333 276.167,271.667 275.5,272C 279.558,273.362 283.558,274.029 287.5,274C 286.051,275.117 284.384,275.784 282.5,276C 283.469,277.758 284.636,278.258 286,277.5C 290.238,278.489 294.572,279.156 299,279.5C 301.05,279.691 302.883,280.358 304.5,281.5C 305.086,281.291 305.586,280.957 306,280.5C 306.667,283.167 307.333,283.167 308,280.5C 315.432,281.816 323.098,282.482 331,282.5C 341.378,282.039 351.378,282.039 361,282.5C 364.018,281.972 366.851,280.972 369.5,279.5C 372.438,280.575 375.438,280.741 378.5,280C 378.957,279.586 379.291,279.086 379.5,278.5C 377.896,276.821 377.229,274.821 377.5,272.5C 377.833,271.833 378.167,271.167 378.5,270.5C 381.794,273.81 383.794,277.81 384.5,282.5C 382.856,282.714 381.356,282.38 380,281.5C 344.055,283.49 307.888,284.156 271.5,283.5C 271.5,283.167 271.5,282.833 271.5,282.5C 276.58,282.75 281.58,282.25 286.5,281C 282.886,280.055 279.219,279.388 275.5,279C 274.252,277.041 272.585,275.541 270.5,274.5C 268.224,275.202 265.891,275.035 263.5,274C 263.957,273.586 264.291,273.086 264.5,272.5C 263.5,271.5 262.5,270.5 261.5,269.5C 259.878,267.561 258.044,267.228 256,268.5C 252.966,265.725 249.799,263.058 246.5,260.5C 246.222,257.305 244.555,255.305 241.5,254.5C 242.246,253.264 242.579,251.93 242.5,250.5C 239.752,250.598 239.086,249.598 240.5,247.5C 239.697,246.577 239.53,245.577 240,244.5C 240.914,245.654 241.747,245.487 242.5,244C 239.515,238.877 237.182,233.377 235.5,227.5 Z"/></g>
<g><path style="opacity:0.004" fill="#fefffe" d="M 172.5,274.5 C 173.833,275.167 173.833,275.167 172.5,274.5 Z"/></g>
<g><path style="opacity:0.659" fill="#e27f74" d="M 378.5,266.5 C 382.031,270.382 384.698,274.882 386.5,280C 386.613,281.699 385.947,282.866 384.5,283.5C 384.5,283.167 384.5,282.833 384.5,282.5C 383.794,277.81 381.794,273.81 378.5,270.5C 378.5,269.167 378.5,267.833 378.5,266.5 Z"/></g>
<g><path style="opacity:0.937" fill="#ec7169" d="M 384.5,282.5 C 384.5,282.833 384.5,283.167 384.5,283.5C 384.389,284.117 384.056,284.617 383.5,285C 346.125,285.821 308.792,285.654 271.5,284.5C 271.5,284.167 271.5,283.833 271.5,283.5C 307.888,284.156 344.055,283.49 380,281.5C 381.356,282.38 382.856,282.714 384.5,282.5 Z"/></g>
<g><path style="opacity:0.304" fill="#de7780" d="M 302.5,292.5 C 297.833,291.167 293.167,291.167 288.5,292.5C 288.611,291.883 288.944,291.383 289.5,291C 293.5,290.333 297.5,290.333 301.5,291C 302.056,291.383 302.389,291.883 302.5,292.5 Z"/></g>
<g><path style="opacity:0.004" fill="#fefffe" d="M 10.5,291.5 C 11.8333,292.167 11.8333,292.167 10.5,291.5 Z"/></g>
<g><path style="opacity:0.961" fill="#ea7a82" d="M 371.5,296.5 C 363.626,291.637 355.626,291.303 347.5,295.5C 350.671,292.03 354.671,290.363 359.5,290.5C 364.657,290.352 368.657,292.352 371.5,296.5 Z"/></g>
<g><path style="opacity:0.004" fill="#fefffe" d="M 191.5,292.5 C 192.833,293.167 192.833,293.167 191.5,292.5 Z"/></g>
<g><path style="opacity:1" fill="#fa566d" d="M 302.5,292.5 C 304.199,292.527 305.533,293.194 306.5,294.5C 306.893,296.284 307.559,297.95 308.5,299.5C 308.517,301.565 308.85,303.565 309.5,305.5C 307.418,305.528 305.584,304.861 304,303.5C 300.271,303.577 296.605,303.577 293,303.5C 291.933,302.809 290.766,302.309 289.5,302C 291.929,301.549 292.096,300.715 290,299.5C 288.494,301.174 286.661,302.174 284.5,302.5C 284.66,300.801 284.494,299.134 284,297.5C 282.961,298.71 281.794,299.71 280.5,300.5C 281.5,296.167 284.167,293.5 288.5,292.5C 293.167,291.167 297.833,291.167 302.5,292.5 Z"/></g>
<g><path style="opacity:0.592" fill="#e6959e" d="M 306.5,294.5 C 308.326,296.147 309.66,298.147 310.5,300.5C 309.833,300.167 309.167,299.833 308.5,299.5C 307.559,297.95 306.893,296.284 306.5,294.5 Z"/></g>
<g><path style="opacity:1" fill="#fa566b" d="M 371.5,296.5 C 373.539,297.911 374.539,299.911 374.5,302.5C 374.5,304.167 374.5,305.833 374.5,307.5C 373.4,304.012 371.9,300.678 370,297.5C 370.794,299.486 370.294,301.319 368.5,303C 364.301,302.856 360.134,302.689 356,302.5C 351.836,303.197 347.67,303.863 343.5,304.5C 343.303,300.738 344.636,297.738 347.5,295.5C 355.626,291.303 363.626,291.637 371.5,296.5 Z"/></g>
<g><path style="opacity:0.004" fill="#fefffe" d="M 334.5,298.5 C 335.833,299.167 335.833,299.167 334.5,298.5 Z"/></g>
<g><path style="opacity:1" fill="#fc4973" d="M 309.5,305.5 C 309.662,307.527 309.495,309.527 309,311.5C 307.853,310.542 306.853,310.875 306,312.5C 305.751,311.376 305.251,310.376 304.5,309.5C 304.089,310.262 303.923,311.262 304,312.5C 302,311.833 300,311.167 298,310.5C 295.859,311.075 293.359,311.408 290.5,311.5C 290.565,311.062 290.399,310.728 290,310.5C 289.667,311.167 289.333,311.833 289,312.5C 287.691,310.024 285.858,308.024 283.5,306.5C 284.016,307.758 283.35,308.758 281.5,309.5C 282.025,310.192 282.692,310.692 283.5,311C 282.748,311.671 282.414,312.504 282.5,313.5C 281.778,313.082 281.278,312.416 281,311.5C 280.501,307.848 280.335,304.182 280.5,300.5C 281.794,299.71 282.961,298.71 284,297.5C 284.494,299.134 284.66,300.801 284.5,302.5C 286.661,302.174 288.494,301.174 290,299.5C 292.096,300.715 291.929,301.549 289.5,302C 290.766,302.309 291.933,302.809 293,303.5C 296.605,303.577 300.271,303.577 304,303.5C 305.584,304.861 307.418,305.528 309.5,305.5 Z"/></g>
<g><path style="opacity:1" fill="#fc4973" d="M 374.5,307.5 C 374.5,308.5 374.5,309.5 374.5,310.5C 373.5,310.5 372.5,310.5 371.5,310.5C 371.5,312.167 371.5,313.833 371.5,315.5C 370.5,315.5 369.5,315.5 368.5,315.5C 368.5,316.833 368.5,318.167 368.5,319.5C 368.5,320.167 368.167,320.5 367.5,320.5C 364.843,320.83 362.176,321.163 359.5,321.5C 355.699,320.753 352.033,319.753 348.5,318.5C 346.384,314.398 344.718,310.064 343.5,305.5C 343.5,305.167 343.5,304.833 343.5,304.5C 347.67,303.863 351.836,303.197 356,302.5C 360.134,302.689 364.301,302.856 368.5,303C 370.294,301.319 370.794,299.486 370,297.5C 371.9,300.678 373.4,304.012 374.5,307.5 Z"/></g>
<g><path style="opacity:1" fill="#fc4179" d="M 290.5,311.5 C 291.172,312.267 292.005,312.934 293,313.5C 296,313.5 299,313.5 302,313.5C 304.363,315.522 304.863,317.855 303.5,320.5C 297.741,321.883 292.075,321.549 286.5,319.5C 285.078,317.488 283.745,315.488 282.5,313.5C 282.414,312.504 282.748,311.671 283.5,311C 282.692,310.692 282.025,310.192 281.5,309.5C 283.35,308.758 284.016,307.758 283.5,306.5C 285.858,308.024 287.691,310.024 289,312.5C 289.333,311.833 289.667,311.167 290,310.5C 290.399,310.728 290.565,311.062 290.5,311.5 Z"/></g>
<g><path style="opacity:1" fill="#f5547b" d="M 308.5,299.5 C 309.167,299.833 309.833,300.167 310.5,300.5C 311.869,305.175 311.702,309.841 310,314.5C 308.594,317.409 306.428,319.409 303.5,320.5C 304.863,317.855 304.363,315.522 302,313.5C 299,313.5 296,313.5 293,313.5C 292.005,312.934 291.172,312.267 290.5,311.5C 293.359,311.408 295.859,311.075 298,310.5C 300,311.167 302,311.833 304,312.5C 303.923,311.262 304.089,310.262 304.5,309.5C 305.251,310.376 305.751,311.376 306,312.5C 306.853,310.875 307.853,310.542 309,311.5C 309.495,309.527 309.662,307.527 309.5,305.5C 308.85,303.565 308.517,301.565 308.5,299.5 Z"/></g>
<g><path style="opacity:0.329" fill="#e67394" d="M 280.5,300.5 C 280.335,304.182 280.501,307.848 281,311.5C 281.278,312.416 281.778,313.082 282.5,313.5C 283.745,315.488 285.078,317.488 286.5,319.5C 283.178,318.342 281.012,316.008 280,312.5C 279.188,308.311 279.355,304.311 280.5,300.5 Z"/></g>
<g><path style="opacity:0.988" fill="#ea7b90" d="M 343.5,305.5 C 344.718,310.064 346.384,314.398 348.5,318.5C 344.913,315.629 342.913,311.795 342.5,307C 342.57,306.235 342.903,305.735 343.5,305.5 Z"/></g>
<g><path style="opacity:1" fill="#f07090" d="M 374.5,302.5 C 375.798,306.408 375.632,310.408 374,314.5C 372.924,317.079 371.091,318.746 368.5,319.5C 368.5,318.167 368.5,316.833 368.5,315.5C 369.5,315.5 370.5,315.5 371.5,315.5C 371.5,313.833 371.5,312.167 371.5,310.5C 372.5,310.5 373.5,310.5 374.5,310.5C 374.5,309.5 374.5,308.5 374.5,307.5C 374.5,305.833 374.5,304.167 374.5,302.5 Z"/></g>
<g><path style="opacity:0.004" fill="#fefffe" d="M 110.5,317.5 C 111.833,318.167 111.833,318.167 110.5,317.5 Z"/></g>
<g><path style="opacity:0.635" fill="#e87294" d="M 286.5,319.5 C 292.075,321.549 297.741,321.883 303.5,320.5C 297.569,324.678 291.902,324.345 286.5,319.5 Z"/></g>
<g><path style="opacity:0.625" fill="#e66c93" d="M 348.5,318.5 C 352.033,319.753 355.699,320.753 359.5,321.5C 362.176,321.163 364.843,320.83 367.5,320.5C 360.686,324.807 354.353,324.14 348.5,318.5 Z"/></g>
<g><path style="opacity:0.004" fill="#fefffe" d="M 388.5,321.5 C 389.833,322.167 389.833,322.167 388.5,321.5 Z"/></g>
<g><path style="opacity:0.004" fill="#fefffe" d="M 130.5,331.5 C 131.833,332.167 131.833,332.167 130.5,331.5 Z"/></g>
<g><path style="opacity:0.004" fill="#fefffe" d="M 200.5,331.5 C 201.833,332.167 201.833,332.167 200.5,331.5 Z"/></g>
<g><path style="opacity:0.004" fill="#fefffe" d="M 273.5,331.5 C 274.833,332.167 274.833,332.167 273.5,331.5 Z"/></g>
<g><path style="opacity:0.004" fill="#fefffe" d="M 437.5,332.5 C 438.833,333.167 438.833,333.167 437.5,332.5 Z"/></g>
<g><path style="opacity:0.004" fill="#fefffe" d="M 44.5,333.5 C 45.8333,334.167 45.8333,334.167 44.5,333.5 Z"/></g>
<g><path style="opacity:0.004" fill="#fefffe" d="M 370.5,333.5 C 371.833,334.167 371.833,334.167 370.5,333.5 Z"/></g>
<g><path style="opacity:0.004" fill="#fefffe" d="M 477.5,338.5 C 478.833,339.167 478.833,339.167 477.5,338.5 Z"/></g>
<g><path style="opacity:0.004" fill="#fefffe" d="M 424.5,340.5 C 425.833,341.167 425.833,341.167 424.5,340.5 Z"/></g>
<g><path style="opacity:0.004" fill="#fefffe" d="M 325.5,341.5 C 326.833,342.167 326.833,342.167 325.5,341.5 Z"/></g>
<g><path style="opacity:0.004" fill="#fefffe" d="M 180.5,345.5 C 181.833,346.167 181.833,346.167 180.5,345.5 Z"/></g>
<g><path style="opacity:0.004" fill="#fefffe" d="M 301.5,356.5 C 302.833,357.167 302.833,357.167 301.5,356.5 Z"/></g>
<g><path style="opacity:0.004" fill="#fefffe" d="M 388.5,357.5 C 389.833,358.167 389.833,358.167 388.5,357.5 Z"/></g>
<g><path style="opacity:0.004" fill="#fefffe" d="M 455.5,376.5 C 456.525,376.897 456.692,377.563 456,378.5C 455.536,377.906 455.369,377.239 455.5,376.5 Z"/></g>
<g><path style="opacity:0.004" fill="#fefffe" d="M 388.5,381.5 C 389.833,382.167 389.833,382.167 388.5,381.5 Z"/></g>
<g><path style="opacity:0.004" fill="#fefffe" d="M 265.5,401.5 C 266.833,402.167 266.833,402.167 265.5,401.5 Z"/></g>
<g><path style="opacity:0.004" fill="#fefffe" d="M 67.5,414.5 C 68.8333,415.167 68.8333,415.167 67.5,414.5 Z"/></g>
<g><path style="opacity:0.004" fill="#fefffe" d="M 401.5,419.5 C 402.833,420.167 402.833,420.167 401.5,419.5 Z"/></g>
<g><path style="opacity:0.004" fill="#fefffe" d="M 413.5,423.5 C 414.833,424.167 414.833,424.167 413.5,423.5 Z"/></g>
<g><path style="opacity:0.004" fill="#fefffe" d="M 95.5,430.5 C 96.8333,431.167 96.8333,431.167 95.5,430.5 Z"/></g>
</svg>
